<svg width="9" height="14" id="arrowSvg" viewBox="0 0 9 14" fill="none" xmlns="http://www.w3.org/2000/svg">
<path d="M8.46875 6.71429C8.46875 6.82143 8.41518 6.94196 8.33482 7.02232L2.09375 13.2634C2.01339 13.3438 1.89286 13.3973 1.78571 13.3973C1.67857 13.3973 1.55804 13.3438 1.47768 13.2634L0.808036 12.5938C0.727679 12.5134 0.674107 12.3929 0.674107 12.2857C0.674107 12.1786 0.727679 12.058 0.808036 11.9777L6.07143 6.71429L0.808036 1.45089C0.727679 1.37054 0.674107 1.25 0.674107 1.14286C0.674107 1.02232 0.727679 0.915179 0.808036 0.834822L1.47768 0.165179C1.55804 0.0848215 1.67857 0.0312501 1.78571 0.0312501C1.89286 0.0312501 2.01339 0.0848215 2.09375 0.165179L8.33482 6.40625C8.41518 6.48661 8.46875 6.60714 8.46875 6.71429Z" fill="white"/>
</svg>
